# xmcd CD database file
#
# Track frame offsets:
#	150
#	14135
#	27622
#	41067
#	53737
#	64935
#	79285
#	92605
#	104697
#	118630
#	132395
#	146275
#	158430
#	172635
#	186027
#
# Disc length: 2646 seconds
#
# Revision: 1
# Processed by: cddbd v1.5.1PL0 Copyright (c) Steve Scherf et al.
# Submitted via: CDex 1.51
#
DISCID=c90a540f
DTITLE=Living The Blues - Chicago Blues CD 1
DYEAR=1997
DGENRE=Blues
TTITLE0=Sonny Boy Williamson - Bring Another Half Pint
TTITLE1=Champion Jack Dupree - Cabbage Greens #1
TTITLE2=Big Boy Crudup - Rock Me Mama
TTITLE3=Lil Green - Blowtop Blues
TTITLE4=Big Bill Broonzy - I Stay Blue All The Time
TTITLE5=Big Joe Williams - Somebody's Been Worryin'
TTITLE6=Big Maceo - Chicago Breakdown
TTITLE7=Jazz Gillum - The Blues What I Am
TTITLE8=Willie Dixon&The Big 3 Trio - If The Sea Was Whiskey
TTITLE9=Tampa Red - (I'm Just) Crazy 'bout You Baby
TTITLE10=Robert Lee Mccoy - Prowling Night Hawk
TTITLE11=Robert Lockwood - Dust My Broom
TTITLE12=Babyface Leroy - Take A Little Walk With Me
TTITLE13=Sunnyland Slim - Brown Skinned Woman
TTITLE14=Memphis Slim - No Mail Blues
EXTD=YEAR: 1997
EXTT0=
EXTT1=
EXTT2=
EXTT3=
EXTT4=
EXTT5=
EXTT6=
EXTT7=
EXTT8=
EXTT9=
EXTT10=
EXTT11=
EXTT12=
EXTT13=
EXTT14=
PLAYORDER=
